<?xml version="1.0" standalone="no"?>
<!DOCTYPE svg PUBLIC "-//W3C//DTD SVG 20010904//EN"
 "http://www.w3.org/TR/2001/REC-SVG-20010904/DTD/svg10.dtd">
<svg version="1.0" xmlns="http://www.w3.org/2000/svg"
 width="450.000000pt" height="283.000000pt" viewBox="0 0 450.000000 283.000000"
 preserveAspectRatio="xMidYMid meet">

<g transform="translate(0.000000,283.000000) scale(0.100000,-0.100000)"
fill="#000000" stroke="none">
<path d="M0 1415 l0 -1415 2250 0 2250 0 0 1415 0 1415 -2250 0 -2250 0 0
-1415z m2149 1151 c-2 -2 -26 -6 -54 -10 -34 -4 -43 -3 -30 3 19 9 93 15 84 7z
m1035 -588 c6 -25 -7 -201 -29 -378 -7 -63 -21 -185 -30 -270 -24 -231 -25
-241 -36 -235 -16 10 -10 156 15 372 33 285 50 463 43 469 -10 11 -70 -90
-166 -281 -60 -120 -67 -163 -41 -256 21 -78 -11 -138 -56 -104 -17 12 -19 26
-17 115 3 96 1 105 -28 163 -18 34 -41 76 -53 92 l-21 30 -6 -65 c-4 -36 -7
-145 -8 -242 -1 -151 -3 -178 -16 -178 -13 0 -15 37 -15 271 0 260 -1 272 -21
301 -12 16 -20 31 -18 32 2 2 18 1 36 -1 24 -4 33 -11 38 -31 4 -15 21 -47 39
-72 18 -25 47 -71 65 -102 18 -32 36 -58 39 -58 4 0 18 26 32 58 63 145 210
392 234 392 7 0 16 -10 20 -22z m-2349 -8 c-11 -5 -69 -19 -128 -31 -127 -26
-118 -14 -147 -188 -27 -172 -32 -241 -17 -246 6 -3 64 6 127 19 100 22 134
25 119 12 -2 -2 -58 -15 -124 -30 -66 -15 -123 -31 -128 -35 -10 -10 9 -175
28 -238 22 -75 79 -133 129 -133 38 0 85 34 98 70 3 8 9 12 13 8 14 -13 -13
-57 -47 -78 -21 -13 -51 -20 -82 -20 -43 0 -53 4 -86 38 -46 46 -80 147 -88
265 l-5 79 -44 -6 c-23 -3 -55 -9 -69 -12 -19 -5 -25 -3 -20 4 4 6 26 16 49
22 85 21 83 20 91 112 4 45 17 136 30 201 l23 117 -21 0 c-12 0 -46 -7 -76
-15 -63 -17 -104 -20 -80 -6 30 18 399 99 450 99 23 1 23 0 5 -8z m131 -128
c44 -64 40 -201 -7 -293 -11 -23 -41 -63 -65 -89 -24 -26 -44 -54 -44 -63 0
-29 23 -67 40 -67 26 0 62 46 69 87 4 24 12 38 21 38 12 0 14 -12 11 -60 -4
-69 -5 -72 -25 -56 -12 10 -19 8 -36 -9 -31 -31 -69 -23 -95 20 -17 31 -20 51
-19 165 1 219 50 375 114 363 8 -2 24 -18 36 -36z m1261 16 c78 -86 46 -288
-64 -400 l-46 -47 12 -41 c11 -36 15 -41 38 -38 18 2 32 14 44 38 30 57 63 79
114 78 l45 -1 0 -38 0 -39 43 0 c26 0 63 10 93 24 l49 25 -33 -28 c-51 -44
-131 -63 -173 -41 -15 8 -26 6 -49 -12 -26 -19 -35 -20 -59 -12 -21 9 -32 8
-47 -3 -31 -23 -67 -12 -84 24 -17 36 -26 40 -49 19 -19 -16 -76 -36 -102 -36
-49 0 -78 80 -41 112 39 34 102 32 102 -3 0 -22 -35 -43 -61 -36 -22 6 -31 -5
-23 -27 11 -29 49 -29 103 -2 l51 26 0 118 c1 259 65 418 137 340z m1692 -14
c37 -31 51 -77 51 -164 -1 -93 -26 -158 -105 -266 -14 -19 -13 -23 10 -47 33
-32 17 -44 -20 -15 l-28 22 -38 -22 c-21 -12 -54 -22 -74 -22 -29 0 -37 5 -45
25 -5 14 -11 25 -13 25 -1 0 -20 -9 -42 -20 -22 -11 -51 -20 -65 -20 -33 0
-69 33 -77 71 -3 16 -9 29 -13 29 -14 0 -35 -32 -45 -68 -12 -41 -34 -53 -42
-23 -6 25 -1 25 -54 1 -24 -11 -54 -20 -66 -20 -53 0 -84 78 -45 113 48 44
127 22 86 -24 -12 -13 -27 -19 -42 -16 -28 5 -40 -16 -22 -38 17 -21 42 -19
95 7 32 16 45 28 45 43 0 29 10 37 27 23 10 -8 19 -6 37 11 39 36 68 25 84
-31 12 -44 16 -48 43 -48 35 0 58 11 118 57 24 18 55 33 69 33 19 0 23 4 17
18 -4 9 -16 46 -26 82 -34 117 -20 207 42 272 45 48 91 52 138 12z m-2919
-324 c0 -5 -4 -10 -10 -10 -5 0 -10 5 -10 10 0 6 5 10 10 10 6 0 10 -4 10 -10z
m220 -11 c14 -26 2 -41 -12 -16 -9 18 -11 18 -29 1 -21 -19 -24 -13 -9 17 14
25 36 24 50 -2z m343 -88 c11 -42 16 -46 46 -49 25 -3 46 5 85 32 72 49 97 57
140 44 35 -11 36 -12 36 -63 0 -58 -28 -176 -58 -247 -43 -97 -133 -168 -217
-170 -174 -3 -96 170 147 326 48 31 90 61 94 67 11 18 -5 23 -23 6 -44 -39
-113 -41 -113 -3 0 11 -11 10 -50 -7 -75 -32 -103 -17 -144 78 -7 16 -35 -25
-47 -67 -12 -47 -39 -52 -39 -8 0 17 -2 30 -4 30 -2 0 -28 -11 -58 -25 -57
-27 -98 -31 -129 -14 -15 8 -25 6 -46 -10 -28 -23 -68 -28 -79 -10 -5 8 -10 6
-16 -5 -12 -21 -57 -21 -65 0 -3 9 -1 25 6 36 9 15 8 25 -6 48 -16 28 -16 31
-1 46 11 11 23 14 35 9 17 -8 17 -8 1 -12 -25 -6 -22 -23 9 -58 20 -23 28 -26
31 -15 3 8 17 27 32 42 22 21 36 26 74 26 45 -1 47 -2 43 -26 -8 -41 2 -52 44
-52 55 0 114 26 128 57 9 19 15 23 23 15 8 -8 19 -5 39 13 41 34 65 23 82 -34z
m2473 34 c19 -15 19 -15 -5 -36 -16 -13 -33 -18 -48 -14 -18 4 -23 1 -23 -14
0 -45 53 -50 118 -11 26 16 31 25 27 43 -8 29 17 53 42 42 17 -8 17 -8 1 -12
-24 -6 -23 -11 8 -56 32 -48 29 -81 -9 -85 -32 -4 -46 21 -28 50 19 30 7 32
-34 4 -79 -54 -155 -40 -155 29 0 24 7 39 26 54 32 25 53 26 80 6z m-2029
-697 c-2 -13 -4 -5 -4 17 -1 22 1 32 4 23 2 -10 2 -28 0 -40z m428 22 c3 -5 1
-10 -4 -10 -6 0 -11 5 -11 10 0 6 2 10 4 10 3 0 8 -4 11 -10z m605 -14 c0 -3
-4 -8 -10 -11 -5 -3 -10 -1 -10 4 0 6 5 11 10 11 6 0 10 -2 10 -4z m-821 -486
c74 0 132 -2 129 -5 -10 -11 -264 -7 -288 4 l-25 12 25 -6 c14 -2 85 -5 159
-5z"/>
<path d="M2890 1383 c0 -38 9 -63 22 -63 6 0 8 14 3 38 -9 49 -25 65 -25 25z"/>
<path d="M903 1841 c-20 -31 -43 -166 -50 -284 l-6 -112 27 25 c49 45 89 142
94 228 6 118 -31 199 -65 143z"/>
<path d="M2180 1845 c-6 -8 -18 -35 -26 -61 -16 -53 -41 -311 -31 -321 12 -11
56 39 84 96 34 69 44 205 20 264 -17 40 -28 45 -47 22z"/>
<path d="M1960 1430 c0 -5 4 -10 9 -10 6 0 13 5 16 10 3 6 -1 10 -9 10 -9 0
-16 -4 -16 -10z"/>
<path d="M2276 1414 c-20 -20 -21 -64 -2 -64 18 0 46 38 46 62 0 22 -23 23
-44 2z"/>
<path d="M3807 1830 c-40 -32 -61 -99 -54 -173 6 -66 37 -165 63 -205 14 -22
17 -22 33 -8 31 28 72 121 83 188 19 118 -13 218 -71 218 -15 0 -40 -9 -54
-20z"/>
<path d="M3250 1430 c0 -5 4 -10 9 -10 6 0 13 5 16 10 3 6 -1 10 -9 10 -9 0
-16 -4 -16 -10z"/>
<path d="M3711 1426 c-7 -8 -13 -27 -14 -43 -2 -22 3 -29 20 -31 26 -4 73 24
73 44 0 14 -38 44 -56 44 -6 0 -17 -6 -23 -14z"/>
<path d="M1778 1429 c-22 -12 -41 -46 -33 -59 8 -13 52 9 69 35 22 33 1 46
-36 24z"/>
<path d="M1156 1414 c-20 -19 -21 -64 -2 -64 16 0 46 42 46 65 0 20 -24 19
-44 -1z"/>
<path d="M1040 1340 c0 -5 5 -10 10 -10 6 0 10 5 10 10 0 6 -4 10 -10 10 -5 0
-10 -4 -10 -10z"/>
<path d="M1735 1259 c-129 -95 -205 -180 -205 -230 0 -22 6 -30 25 -35 86 -21
222 104 254 233 7 26 14 56 17 66 9 29 -17 19 -91 -34z"/>
<path d="M3980 1430 c0 -5 4 -10 9 -10 6 0 13 5 16 10 3 6 -1 10 -9 10 -9 0
-16 -4 -16 -10z"/>
<path d="M4135 1340 c-3 -5 -1 -10 4 -10 6 0 11 5 11 10 0 6 -2 10 -4 10 -3 0
-8 -4 -11 -10z"/>
</g>
</svg>
